<svg xmlns="http://www.w3.org/2000/svg" viewBox="0 0 256 256">
  <defs>
    <linearGradient id="bg" x1="32" x2="224" y1="24" y2="232" gradientUnits="userSpaceOnUse">
      <stop offset="0" stop-color="#153a5b" />
      <stop offset="1" stop-color="#0b1726" />
    </linearGradient>
    <linearGradient id="shield" x1="74" x2="182" y1="52" y2="196" gradientUnits="userSpaceOnUse">
      <stop offset="0" stop-color="#56d4ff" />
      <stop offset="1" stop-color="#0ea5a3" />
    </linearGradient>
  </defs>
  <rect width="256" height="256" rx="56" fill="url(#bg)" />
  <path
    d="M128 38l66 24v50c0 44-25 82-66 106-41-24-66-62-66-106V62l66-24z"
    fill="url(#shield)"
    opacity="0.95"
  />
  <path
    d="M128 66l43 16v31c0 29-16 54-43 74-27-20-43-45-43-74V82l43-16z"
    fill="#0b1726"
    opacity="0.9"
  />
  <circle cx="128" cy="117" r="24" fill="none" stroke="#8af5ff" stroke-width="10" />
  <path
    d="M128 93a24 24 0 0 1 24 24"
    fill="none"
    stroke="#d9fbff"
    stroke-linecap="round"
    stroke-width="10"
  />
  <path
    d="M128 117l28-28"
    fill="none"
    stroke="#f59e0b"
    stroke-linecap="round"
    stroke-width="12"
  />
  <circle cx="128" cy="117" r="8" fill="#f8fafc" />
  <path
    d="M95 171c10 7 21 13 33 20 12-7 23-13 33-20"
    fill="none"
    stroke="#8af5ff"
    stroke-linecap="round"
    stroke-width="8"
  />
</svg>
